<svg id="Layer_1" data-name="Layer 1" xmlns="http://www.w3.org/2000/svg" viewBox="0 0 24 24"><defs><style>.cls-1{fill:#153677;}</style></defs><path class="cls-1" d="M13,12l4.4-4.39a.7.7,0,0,0-1-1L12,11,7.61,6.62a.7.7,0,0,0-1,1L11,12l-4.4,4.39a.7.7,0,0,0,0,1h0a.69.69,0,0,0,1,0h0L12,13l4.39,4.4a.7.7,0,0,0,1,0h0a.69.69,0,0,0,0-1h0Z"/><path class="cls-1" d="M16.89,17.85a1,1,0,0,1-.68-.28L12,13.36,7.75,17.6a.89.89,0,0,1-.64.25h0a1,1,0,0,1-.68-.28,1,1,0,0,1-.28-.69,1,1,0,0,1,.28-.67L10.65,12,6.43,7.79a1,1,0,0,1-.28-.68,1,1,0,0,1,.28-.68,1,1,0,0,1,1.36,0L12,10.65l4.21-4.22a1,1,0,0,1,1.36,0,1,1,0,0,1,0,1.36L13.35,12l4.22,4.21a1,1,0,0,1,0,1.33l-.06.05A.88.88,0,0,1,16.89,17.85ZM12,12.61l4.58,4.59a.43.43,0,0,0,.3.13.46.46,0,0,0,.31-.13h0a.44.44,0,0,0,0-.62L12.61,12,17.2,7.42a.44.44,0,0,0,0-.62.46.46,0,0,0-.62,0L12,11.39,7.42,6.8a.46.46,0,0,0-.62,0,.48.48,0,0,0-.13.31.44.44,0,0,0,.13.31L11.39,12,6.8,16.58a.44.44,0,0,0-.13.31.43.43,0,0,0,.13.3.43.43,0,0,0,.31.14h0a.44.44,0,0,0,.31-.13h0Z"/></svg>